<?xml version="1.0" standalone="no"?>
<!DOCTYPE svg PUBLIC "-//W3C//DTD SVG 20010904//EN"
 "http://www.w3.org/TR/2001/REC-SVG-20010904/DTD/svg10.dtd">
<svg version="1.0" xmlns="http://www.w3.org/2000/svg"
 width="221.000000pt" height="155.000000pt" viewBox="0 0 221.000000 155.000000"
 preserveAspectRatio="xMidYMid meet">
<metadata>
Created by potrace 1.15, written by Peter Selinger 2001-2017
</metadata>
<g transform="translate(0.000000,155.000000) scale(0.100000,-0.100000)"
fill="#000000" stroke="none">
<path d="M230 1400 c14 -11 132 -84 263 -162 130 -79 283 -171 340 -206 56
-34 158 -96 227 -138 145 -87 410 -250 426 -261 6 -4 62 -97 124 -205 100
-177 130 -219 130 -189 0 6 -5 13 -10 16 -6 4 -7 23 -4 46 4 26 3 39 -5 39 -7
0 -11 18 -11 45 0 25 0 65 0 90 0 25 -4 45 -11 45 -6 0 -8 15 -4 44 5 29 3 46
-5 51 -7 5 -9 21 -5 46 5 27 3 39 -5 39 -8 0 -9 14 -4 45 4 30 3 45 -5 45 -6
0 -11 8 -11 19 0 12 -12 23 -32 32 -18 7 -56 23 -85 36 -28 13 -107 45 -175
72 -68 27 -199 80 -293 119 -93 38 -260 107 -370 152 -207 85 -350 143 -445
179 -53 21 -54 21 -30 1z"/>
</g>
</svg>
